<svg id="Слой_1" data-name="Слой 1" xmlns="http://www.w3.org/2000/svg" viewBox="0 0 1000 1000"><defs><style>.cls-1,.cls-2,.cls-3{fill:none;stroke:#fff;stroke-width:32px;}.cls-1{stroke-linecap:round;}.cls-1,.cls-2{stroke-linejoin:round;}.cls-3{stroke-miterlimit:10;}</style></defs><title>1</title><path class="cls-1" d="M149.2,160.92C169.51,75.4,216.93,36,277.34,51.32,301.17,57.35,325,63.4,348.88,69c47.64,11.16,71.58,1.13,109.22-45.17-8.3,59.1-50.44,111.56-94.24,109.6-33.37-1.49-66.6-11.64-99.81-18.77C211.29,103.34,188.22,112,149.2,160.92Z"/><path class="cls-1" d="M400.3,263.56c11.87-50,39.58-73,74.89-64.05C489.11,203,503,206.57,517,209.84c27.84,6.52,41.83.66,63.82-26.4-4.85,34.54-29.48,65.19-55.07,64-19.5-.87-38.92-6.8-58.33-11C436.58,229.91,423.1,235,400.3,263.56Z"/><path class="cls-2" d="M328,257.42c9.94-13.11-11.76-30.5-19.07-46.16H99.85c-6.55,18.33-27.44,37.82-14.76,52C98.36,278,98.61,291.52,98.82,305.57c1.24,80.37.61,160.74.62,241.11v17.38c139.57,0,74.84-.53,211.06-.53V524.68c0-20.93.44-40.08,0-60.93V291.35A105.21,105.21,0,0,1,328,257.42Z"/><path class="cls-2" d="M310.5,316H440.63c5.14,11,20.4,23.24,13.41,32.46a73.83,73.83,0,0,0-12.33,23.86V493.53c.31,14.66,0,28.12,0,42.84v27.32c-95.79,0-50.27.37-148.42.37v-.52"/><path class="cls-2" d="M561.58,420.32V705.58H491.24v-91H35.38V982.8H657.24V747.86H856.61V982.6H949V420.32Z"/><path class="cls-2" d="M932.27,307.73H580.81v63.63H932.27Z"/><path d="M908.19,263.8V248.87a8.54,8.54,0,0,0-8.54-8.54h-294a8.54,8.54,0,0,0-8.53,8.83l.51,14.93a8.53,8.53,0,0,0,8.53,8.24H899.65A8.54,8.54,0,0,0,908.19,263.8Z"/><rect class="cls-3" x="119.57" y="663" width="100.43" height="265.45" rx="19.32" ry="19.32"/><rect class="cls-3" x="280.38" y="663" width="100.43" height="265.45" rx="19.32" ry="19.32"/></svg>