<?xml version="1.0" encoding="utf-8"?>
<!-- Generator: Adobe Illustrator 21.0.0, SVG Export Plug-In . SVG Version: 6.00 Build 0)  -->
<svg version="1.1" id="Слой_1" xmlns="http://www.w3.org/2000/svg" xmlns:xlink="http://www.w3.org/1999/xlink" x="0px" y="0px"
	 viewBox="0 0 1000 1000" style="enable-background:new 0 0 1000 1000;" xml:space="preserve">
<style type="text/css">
	.st0{fill:none;stroke:#ffffff;stroke-width:32;stroke-linecap:round;stroke-linejoin:round;stroke-miterlimit:10;}
	.st1{fill:none;stroke:#ffffff;stroke-width:32;stroke-linejoin:round;stroke-miterlimit:10;}
	.st2{fill:none;stroke:#ffffff;stroke-width:32;stroke-miterlimit:10;}
	.st3{fill:#FFFFFF;}
</style>
<g>
	<path class="st1" d="M804,338.2c0,6,0.1,11.3,0,16.6c-0.1,11.7-7.2,19.2-19,19.2c-47.3,0.1-94.7,0.1-142,0
		c-11,0-18.2-7.2-18.3-18.2c-0.2-18-0.3-36,0-54c0.4-20.2,15.5-35.3,35.8-35.4c59.8-0.2,119.7-0.1,179.5-0.1
		c10.5,0,19.4,4,26.8,11.5c23.3,23.4,46.5,46.8,69.8,70.2c8,8,11.1,17.8,11.1,29c-0.1,66.7-0.1,133.3-0.1,200
		c0,73.8,0.1,147.7-0.1,221.5c0,4.9,0.9,7.1,6.3,6.4c3.4-0.5,7-0.1,10.5-0.1c12.2,0.2,19.1,7.1,19.2,19.4
		c0.1,24.8,0.1,49.7,0.1,74.5c0,26.3,0,52.7,0,79c0,1.9,0,3.9,0,6.1c-48.1,0-95.5,0-143.2,0c-0.1-1.3-0.4-2.4-0.4-3.5
		c0-52-0.1-104,0-156c0-12.8,6.7-19.3,19.4-19.5c2.8,0,5.7,0,8.5,0c2.3,0,4.6,0,7.5,0c0.1-2.1,0.3-3.8,0.3-5.6
		c0-135.2,0-270.3,0.1-405.5c0-3.7-1.2-6.2-3.7-8.7c-14.6-14.4-28.9-29-43.6-43.3c-2-1.9-5.4-3-8.2-3.3
		C815.2,337.8,810,338.2,804,338.2z"/>
	<path d="M786,420.3c4,2.1,8.6,3.5,11.7,6.5c12.7,12,25,24.4,37.3,36.8c7.5,7.6,7.6,18.8,0.5,25.9c-7.2,7.3-17.9,7.1-25.7-0.7
		c-12.4-12.3-24.8-24.6-37.1-37c-5.4-5.5-6.8-13-3.6-19.8C772.3,425.3,777.8,421.7,786,420.3z"/>
	<path d="M730.6,485.4c0,8.1,0.1,16.3,0,24.4c-0.1,10.5-7.7,18.2-17.7,18.3c-10.1,0.1-18.1-7.9-18.2-18.5c-0.1-16.3-0.1-32.6,0-48.9
		c0.1-10.8,7.8-18.5,18.1-18.5c10.3,0,17.7,7.7,17.9,18.6c0.1,4.2,0,8.3,0,12.5C730.6,477.5,730.6,481.4,730.6,485.4z"/>
	<path d="M602.6,495.8c-8.1-1.2-13.5-4.9-16.5-11.7c-3-6.8-2.3-13.6,2.9-19c12-12.4,24.2-24.7,36.7-36.7c7.2-6.9,17.7-6.2,24.7,0.8
		c6.8,6.8,7.5,17.4,0.8,24.3c-12.2,12.7-24.8,25-37.6,37.1C610.7,493.3,606.2,494.1,602.6,495.8z"/>
</g>
<g>
	<path class="st0" d="M578.2,420.3c0-105.3,0-165.8,0.1-271.1c0-3.7-1.2-6.2-3.7-8.7c-14.6-14.4-28.9-29-43.6-43.3
		c-2-1.9-5.4-3-8.2-3.3c-5.1-0.5-10.3-0.2-16.3-0.2c0,6,0.1,11.3,0,16.6c-0.1,11.8-7.2,19.2-19,19.2c-47.3,0.1-94.7,0.1-142,0
		c-11,0-18.2-7.2-18.3-18.2c-0.2-18-0.3-36,0-54c0.4-20.2,15.5-35.3,35.8-35.4c59.8-0.2,119.7-0.1,179.5-0.1
		c10.5,0,19.5,4,26.8,11.5c23.3,23.4,46.5,46.8,69.8,70.2c8,8.1,11.1,17.8,11,29c0,31.3-0.1,36.2-0.1,67.5"/>
	<path class="st0" d="M650.1,534.6c0,19.4,0,0-0.1,19.4c0,4.9,0.9,7.1,6.3,6.4c3.4-0.5,7-0.1,10.5-0.1c12.2,0.2,19.1,7.1,19.2,19.4
		c0.1,24.1,0.1,48.1,0.1,72.2c0,0.8,0,1.5,0,2.3c0,26.3,0,52.7,0,79c0,1.9,0,3.9,0,6.1c-2.8,0-5.6,0-8.5,0c-45.2,0-89.8,0-134.7,0
		c-0.1-1.3-0.4-2.4-0.4-3.5c0-25.4,0-50.8,0-76.2c0-26.6,0-53.2,0-79.8c0-4.2,0.7-7.7,2.1-10.5c2.9-5.9,8.7-8.9,17.3-9
		c2.8,0,5.7,0,8.5,0c2.3,0,4.6,0,7.5,0c0.1-2.1,0.3-3.8,0.3-5.6c0-16.4,0-7.8,0-24.2"/>
	<path d="M488.4,175.9c4,2.1,8.6,3.5,11.7,6.5c12.7,12,25,24.4,37.3,36.8c7.5,7.6,7.6,18.8,0.5,25.9c-7.2,7.3-17.9,7.1-25.7-0.7
		c-12.4-12.3-24.8-24.6-37.1-37c-5.4-5.5-6.8-13-3.6-19.8C474.7,180.8,480.2,177.2,488.4,175.9z"/>
	<path d="M433,241c0,8.1,0.1,16.3,0,24.4c-0.1,10.5-7.7,18.2-17.7,18.3c-10.1,0.1-18.1-7.9-18.2-18.5c-0.1-16.3-0.1-32.6,0-48.9
		c0.1-10.8,7.8-18.5,18.1-18.5c10.3,0,17.7,7.7,17.9,18.6c0.1,4.2,0,8.3,0,12.5C433,233,433,237,433,241z"/>
	<path d="M304.9,251.3c-8.1-1.2-13.5-4.9-16.5-11.7c-3-6.8-2.3-13.6,2.9-19c12-12.4,24.2-24.7,36.7-36.7c7.2-6.9,17.7-6.2,24.7,0.8
		c6.8,6.8,7.5,17.4,0.8,24.3c-12.2,12.7-24.8,25-37.6,37.1C313,248.8,308.6,249.7,304.9,251.3z"/>
</g>
<path class="st0" d="M41,387.7c176.8,22.4,350.3,92.8,505.2,179"/>
<path class="st0" d="M686,651.3c69.4,45.5,133.2,92.3,189.8,136.8"/>
<path class="st0" d="M41,458.6C217,487,389,563.1,542.4,654.4"/>
<path class="st0" d="M674.3,739.3C734,780.7,789.6,822.9,840,863.8"/>
<path class="st0" d="M296,853c0,0-98.1-93.6-213.1-132.7l-42.7,55.9C155.2,815.3,229.1,899,229.1,899L296,853z"/>
<g>
	<path d="M454.3,1000h-38.2c-26.5-34-53.9-62.6-81.7-85.3l-30.8,20.6c19.9,17,38.8,36.3,56.3,57.5c1.8,2.1,2.9,4.6,3.4,7.2H324
		c-17.8-20-36.9-37.9-56.9-53.3c-4.1-3.1-6.4-8.1-6.2-13.2c0.2-5.1,2.8-9.9,7.1-12.8l58.5-39.2c5.7-3.8,13.2-3.6,18.7,0.6
		c36.5,28.1,72.3,65.5,106.4,111.3C452.9,995.5,453.9,997.7,454.3,1000z"/>
</g>
</svg>
