<?xml version="1.0" encoding="utf-8"?>
<!-- Generator: Adobe Illustrator 21.0.0, SVG Export Plug-In . SVG Version: 6.00 Build 0)  -->
<svg version="1.1" id="Слой_1" xmlns="http://www.w3.org/2000/svg" xmlns:xlink="http://www.w3.org/1999/xlink" x="0px" y="0px"
	 viewBox="0 0 1000 1000" style="enable-background:new 0 0 1000 1000;" xml:space="preserve">
<style type="text/css">
	.st0{fill:none;stroke:#ffffff;stroke-width:32;stroke-linecap:round;stroke-linejoin:round;stroke-miterlimit:10;}
	.st1{fill:none;stroke:#ffffff;stroke-width:32;stroke-linejoin:round;stroke-miterlimit:10;}
	.st2{fill:none;stroke:#ffffff;stroke-width:32;stroke-miterlimit:10;}
	.st3{fill:#FFFFFF;}
</style>
<path class="st2" d="M980.3,945c-0.1-9.1-3.8-12.9-13.1-13c-16,0-32.1,0-48.1,0c-2.1,0-4.1-0.2-6.6-0.3c0-2.5,0-4.5,0-6.4
	c0-44,0-81,0-125c0-11.5-3.2-14.7-14.5-14.8c-36.7,0-73.4,0-110.1-0.1c-3.1,0-6.6-0.2-9.3-1.5c-7.3-3.6-5.3-17.8-5.6-24.1
	c-0.2-5.3-0.1-10.7,5.6-13.3c2.6-1.2,5.9-1.4,8.8-1.4c37.2-0.1,74.5-0.1,111.7-0.1c5.1,0,9.9-0.8,12.1-5.9c1.1-2.5,1.3-5.5,1.3-8.3
	c0.1-39.6-0.4-73.6-0.4-113.1c0-10.9-3.5-14.2-14.5-14.2c-35.5,0-70.9,0.1-106.4,0c-17.2,0-18.8-1.7-18.8-19.1c0-11,3.8-20,14.7-20
	c36.5,0,73,0,109.6,0c13,0,15.9-2.9,15.9-16.1c0-38.8,0-71.1,0-109.9c0-11.1-3.3-14.5-14.2-14.5c-35.1,0-70.2,0-105.3,0
	c-18.9,0-20.4-8.1-20.2-27c0.1-9.3,3.7-13,13-13c37.6,0,75.2,0,112.8,0c10.1,0,13.9-3.8,14-13.8c0-8.2-0.5-16.4,0.1-24.6
	c0.6-8.5-2.5-14.2-9.4-19.4C827,268.4,751.6,208.7,675.2,150.8c-5.2-4-9.2-6.8-15.6-12.5h-36.3c-5.9,3.1-7.7,8-7.7,14.5
	c0.2,92.6,0.1,29.4,0.1,122.1c0,10.6,3.6,14.1,14.1,14.1c34.4,0,68.8,0,103.2,0.1c17.4,0,18.9,1.5,18.9,18.8
	c0,11.1-3.4,20.6-14.3,20.6c-35.6,0-71.3,0-106.9,0c-11.7,0-14.9,3.2-14.9,14.9c0,39.4,0,72.6,0,112c0,10.9,3.4,14.3,14.4,14.3
	c33.8,0,67.7,0,101.5,0c19.1,0,20.4,7.3,20.2,26.2c-0.1,9.5-3.8,13.1-13.4,13.1c-36.5,0-73,0-109.6,0.1c-9.2,0-13.2,0.4-13.2,9.5
	c0,39.9,0,77.3,0,117.2c0,11.3,3.4,14.8,14.6,14.8c34.2,0,68.4,0,102.6,0c17.4,0,19,8.8,19,26c0,11.3-3.2,14.5-14.7,14.5
	c-36,0-72,0-108,0.1c-9.7,0-13.5,3.7-13.5,13.1c0,54,0,100.8,0,154.8c0,22.8,0,45.6-0.1,68.4c0,1.7-1.3,4.9-2.1,5
	c-7.6,0.3-35.4,0.3-52.9,0.2c-2.5,0-4.6-2-4.6-4.6c0,0,0,0,0,0c0-115.4,0-230.9,0-346.3c0-78.6,0-157.1,0-235.7
	c0-10.5-5.1-14.6-15.3-12.7c-7,1.3-13.9,2.8-20.9,4.2c-92.6,18.3-153.5,32.1-246,50.4c-56.2,11.1-112.1,26.9-168.3,38
	c-12.1,2.4-13.8,4.3-13.8,16.6c0,160.7,0,321.4,0,482.1c0,2.3,0,4.6,0,7.5c-2.5,0-4.4,0-6.3,0c-17.6,0-35.3,0-52.9,0.1
	c-7.5,0-11.9,3.9-12,10.7c-0.2,9.3-0.2,18.5,0,27.8c0.1,6,4.2,9.9,10.1,10.3c2.8,0.2,5.7,0.1,8.5,0.1c242.1,0,484.2,0,726.3,0
	c67.2,0,134.3,0,201.5,0c9.9,0,13.5-3.6,13.5-13.5C980.3,960,980.3,952.5,980.3,945z"/>
<polygon class="st0" points="222.6,928.4 162.6,928.4 162.6,500 222.6,488 "/>
<polygon class="st0" points="356.8,928.4 296.8,928.4 296.8,474 356.8,462 "/>
<polygon class="st0" points="491,928.4 431,928.4 431,444 491,432 "/>
</svg>
