<?xml version="1.0" encoding="utf-8"?>
<!-- Generator: Adobe Illustrator 21.0.0, SVG Export Plug-In . SVG Version: 6.00 Build 0)  -->
<svg version="1.1" id="Слой_1" xmlns="http://www.w3.org/2000/svg" xmlns:xlink="http://www.w3.org/1999/xlink" x="0px" y="0px"
	 viewBox="0 0 1000 1000" style="enable-background:new 0 0 1000 1000;" xml:space="preserve">
<style type="text/css">
	.st0{fill:none;stroke:#ffffff;stroke-width:32;stroke-linecap:round;stroke-linejoin:round;stroke-miterlimit:10;}
	.st1{fill:none;stroke:#ffffff;stroke-width:32;stroke-linejoin:round;stroke-miterlimit:10;}
	.st2{fill:none;stroke:#ffffff;stroke-width:32;stroke-miterlimit:10;}
	.st3{fill:#000000;}
	.st4{stroke:#ffffff;stroke-width:3;stroke-miterlimit:10;}
</style>
<path d="M3.5,982.2c3.5-9.5,11-11.8,20.2-11.7c11.2,0.1,22.3-0.2,33.5-0.3c1.8,0,3.6,0,6.1,0c0-2.5,0-4.4,0-6.4
	c0.3-202.5,0.6-404.9,0.8-607.4c0-9.2,2-12.5,9.1-14.7c7.4-2.3,14.2,0.1,18.5,6.9c1.1,1.8,1.4,4.4,1.4,6.6
	c0.1,66.7,0.1,133.3,0.1,200c0,136.1,0,272.3,0,408.4c0,2,0,3.9,0,6.6c2.5,0,4.5,0,6.4,0c42.8,0,85.6,0.1,128.5-0.1
	c7.1,0,10.7,3.9,13.5,9.1c2.9,5.3,1.5,10.3-2,14.9c-1.6,2.1-3.4,4.1-5.1,6.1c-73.7,0-147.3,0-221,0c-3.3-4-6.7-8-10-12
	C3.5,986.2,3.5,984.2,3.5,982.2z"/>
<path d="M82.5,100.2c8.9,4.5,11.6,12,10.8,21.5c-0.2,2.6,0,5.2,0,8.4c6.5,0,12.3-0.1,18,0c10,0.3,20,0.3,29.9,1.2
	c7.9,0.7,11.5,5.1,10.8,12.7c-4.7,50.9-9.5,101.8-14.5,152.6c-0.9,8.7-4,11.4-12.6,11.6c-31.6,0.5-63.3,0.7-94.9,1
	c-4.1,0-8.4-3.8-9.5-9.4c-1.6-8-3-16.1-3.8-24.2c-4.2-40.7-8.2-81.5-12.3-122.3c-0.1-1.5-0.6-2.9-0.9-4.3c0-2.3,0-4.7,0-7
	c1.2-1.8,2.4-3.6,3.6-5.4c3.5-4.9,7.8-7.4,14.3-6.9c10.1,0.6,20.3,0.2,30.5,0.2c3.6,0,7.2,0,11.5,0c-0.8-12.3-1.1-24.1,12.1-29.9
	C77.9,100.2,80.2,100.2,82.5,100.2z M35,160.5c1.2,11.1,2.4,22,3.5,32.9c2.6,26.2,5.4,52.3,7.7,78.5c0.5,5.8,3.2,7.4,8.3,7.4
	c17.8,0,35.6,0.1,53.5,0.1c0.6,0,1.2-0.3,2-0.5c0.2-1.6,0.5-3.1,0.7-4.5c3.4-34.5,6.8-68.9,10.1-103.4c1-10.4,2.6-10.2-9.1-10.4
	c-24.5-0.5-49-0.4-73.4-0.5C37.2,160.1,36.2,160.3,35,160.5z"/>
<path class="st4" d="M803.5,136.1c6.3,0,11.7,0,17.2,0c46.2,0.2,92.3,0.3,138.5,0.5c8.6,0.1,17.3,0.5,25.9,1.5
	c11,1.3,13.3,4.3,13.6,15.2c0.5,25.7,1.3,51.3,1.3,77c0,85.5,0.3,206.1,0,291.6c0,10.3-0.5,20.7-0.9,31c-0.4,8.8-5.3,14.2-12.8,14.3
	c-7.6,0.1-13.5-5.6-13.6-14.2c-0.7-35.7-1.9-106.4-2-142.1c-0.2-80.3-0.1-160.7-0.1-241c0-1.1-0.2-2.3-0.3-3.7
	c-54.9,0-109.7,0-165,0c0,2.1,0,3.9,0,5.7c-0.4,84.7-0.7,270.6-1.2,355.3c0,7.5-0.4,15-0.9,22.5c-0.5,8-5.4,12.3-13.4,12.2
	c-7.9-0.1-12.8-4.7-12.9-12.7c-0.5-25.8-1-152.9-1.1-178.8c-0.2-141.5-0.2-193.9-0.3-335.4c0-1.5-0.2-2.9-0.3-4.8
	c-2-0.1-3.8-0.2-5.6-0.2c-61.7,0-123.3,0-185-0.2c-5.3,0-6.2,1.6-6.2,6.5c0,179.7,0,270.2-0.2,449.9c0,19.8-0.7,39.7-1,59.5
	c-0.2,11.4-6.4,12.7-14.6,12.1c-6.1-0.4-9.1-3-9.9-9.3c-1.1-7.9-1.9-15.9-1.9-23.9c-0.3-42-0.3-84-0.3-126c0-2.2,0-4.3,0-7
	c-111.9,0-223.6,0-335.8,0c0,2,0,4,0,6c-0.3,87-0.7,174-0.7,261c0,6.6-3.9,9-8.2,11.7c-4.2,2.7-8.5,2.3-12.7-0.3
	c-4.9-3.1-7.6-6.6-7.6-13.2c0.1-82.3-0.2-164.7-0.3-247c0-11.1,0.7-22.3,1.7-33.4c0.9-10.6,3.9-13.3,14.7-13.5
	c32.8-0.6,65.6-1.2,98.5-1.3c81.3-0.3,162.7-0.3,244-0.4c2,0,3.9,0,6.5,0c0-2.7,0-4.8,0-6.9c0.1-130.5,0.2-171.9,0.3-302.4
	c0-11.8,0.7-23.7,0.9-35.5c0.1-10.1,5.3-14.9,15.1-14.9c75,0,150-0.3,225-0.5c5,0,11.8,8.1,11.8,13.9c0,30,0,60,0,90
	c0,37.2,0-14.7,0,22.4C803.5,129.8,803.5,132.4,803.5,136.1z"/>
<rect x="610" y="71.2" width="58" height="58"/>
<rect x="610" y="155.2" width="58" height="58"/>
<rect x="610" y="239.2" width="58" height="58"/>
<rect x="610" y="323.2" width="58" height="58"/>
<rect x="465.8" y="422.5" width="58" height="58"/>
<rect x="322.1" y="422.5" width="58" height="58"/>
<rect x="243.8" y="422.5" width="58" height="58"/>
<path d="M999.1,831.8c-2-8-6.6-11.7-14.6-11.8c-43-0.3-86-0.7-129-0.9c-3.9,0-5.4-1-5.1-5c0.2-2.6,0.2-5.2-0.1-7.6v-17.2
	c3.8,0,7.7,0,11.5,0c21.5-0.2,43-0.3,64.5-0.6c8.8-0.1,10.9-2.4,12.4-11.1c0.3-1.8,0.6-3.6,0.6-5.5c0.3-19.3,0.6-38.7,0.8-58
	c0.1-6.3-8-14.4-14.3-14.4c-23,0-46,0-69,0h-5.7c-0.6-3.1-0.7-6.4-0.9-9.6v-20.3c25,0,49.9,0,74.9,0c7.4,0,14.9-7.7,15-15.2
	c0-19.8,0-39.7,0-59.5c0-7.2-8-15-15.3-15c-23,0-46-0.1-69,0.1c-3.9,0-5.3-1.2-5.4-5c0-1.5-0.1-3-0.2-4.5v-5c0-4.2-1.7-8.1-4.5-10.8
	c-2.8-2.8-6.6-4.5-10.8-4.5c-0.1,0-0.1,0-0.2,0c-0.2,0-0.3,0-0.5,0c-0.1,0-0.1,0-0.2,0c-0.5,0-1,0.1-1.4,0.2
	c-7.4,1.1-13,7.5-13,15.2v14H401.2c-0.2-1.7-0.3-3.4-0.5-5.1v-8.9c0-4.2-1.7-8.1-4.5-10.8c-2.8-2.8-6.6-4.5-10.8-4.5
	c-0.1,0-0.2,0-0.3,0c-0.5,0-0.9,0-1.4,0c-0.7,0.1-1.5,0.2-2.2,0.4c-0.1,0-0.2,0.1-0.4,0.1c-6.4,1.8-11.2,7.7-11.2,14.8V580h-5.3
	c-18,0-36,0-54,0.1c-6,0-12,0.2-18,0.8c-7.9,0.8-12.7,6.4-12.7,14.2c0,20,0,40,0,60c0,7.8,6.8,14.6,14.6,14.6c25.1,0,50.2,0,75.3,0
	v29.4c-0.9,0.6-2.8,0.4-6.7,0.5c-23.3,0.3-46.6,0.6-70,1.2c-7.4,0.2-10.9,3.5-12.3,10.7c-0.8,3.7-1.2,7.6-1.2,11.4
	c0.2,17.7,0.3,35.3,1,53c0.4,8.9,5.8,13.2,14.6,13.2H370v27.2c0,1,0.1,1.9,0.3,2.8c-2.5,0-4.5,0-6.6,0c-41.8,0.3-83.7,0.6-125.5,1.1
	c-12.9,0.2-17.5,4.3-17.8,17.1c-0.5,19-0.3,38,0,57c0.2,10,3.9,14.1,13.8,14.9c12.6,1,25.3,0.9,37.9,1.3c2.1,0.1,4.3,0,6.9,0
	c0,2.6,0,4.5,0,6.5c0.6,23.2,0.9,46.3,1.8,69.5c0.3,8.6,6,13,14.6,12.9c8.3-0.2,12.3-4.1,13-13.2c0.2-2.8,0.4-5.6,0.4-8.5
	c0.1-18.2,0.2-36.3,0.2-54.5c0-4,0-7.9,0-12.3h601.1c0,2.2,0,4,0,5.8c0.1,16.7,0,33.3,0.2,50c0.1,7.3,0.4,14.7,1.3,21.9
	c0.9,7,8,12.1,14.6,11.4c6.2-0.7,13.8-8.5,13.8-14.2c0-23,0-46,0-69V911c2.4-0.2,4.2-0.3,6-0.4c13.3-0.4,26.7-0.6,40-1.3
	c6.9-0.3,10.9-4,12.8-10.6c0.3-0.9,0.7-1.8,1-2.7v-62C999.7,833.2,999.3,832.5,999.1,831.8z M400.7,816.9c0-0.2,0-0.4,0-0.6V791
	c139.8-2.7,279-1.4,419-1.4v26.7c0,0.8,0.1,1.6,0.2,2.4H400.8C400.7,818.2,400.7,817.6,400.7,816.9C400.7,817,400.7,817,400.7,816.9
	z M309.4,639.5v-29.2H370h30.7h419h30.7H910v29.2h-59.6h-30.7h-419H370H309.4z M400.7,670.2h419v29.1H401.1c-0.2-2.3-0.3-4.7-0.5-7
	V670.2z M314.7,759.5c-4.4,0-5.9-1.1-5.6-5.6c0.4-5.8,0.3-11.7,0.3-17.5c0-4.3,1.7-6.1,6.2-6.1c18.1,0,36.3-0.2,54.4-0.3
	c7.5-0.1,15-0.1,22.6-0.1c2.7,0,5.4,0,8.1,0c139.7-0.2,279.3-0.3,419-0.4c10.2,0,20.4,0,30.7,0c17.9,0,35.8,0,53.7-0.1h6.1V759
	c-1.9,0.1-3.7,0.3-5.4,0.3h-54.3c-10.2,0-20.4,0-30.7,0c-139.7,0-279.3,0-419,0.1c-10.2,0-20.5,0-30.7,0
	C351.6,759.5,333.2,759.5,314.7,759.5z M969.7,880.1H250.1v-28.8h719.6V880.1z"/>
</svg>
