<?xml version="1.0" encoding="utf-8"?>
<!-- Generator: Adobe Illustrator 21.0.0, SVG Export Plug-In . SVG Version: 6.00 Build 0)  -->
<svg version="1.1" id="Слой_1" xmlns="http://www.w3.org/2000/svg" xmlns:xlink="http://www.w3.org/1999/xlink" x="0px" y="0px"
	 viewBox="0 0 1000 1000" style="enable-background:new 0 0 1000 1000;" xml:space="preserve">
<style type="text/css">
	.st0{fill:none;stroke:#fff;stroke-width:32;stroke-linecap:round;stroke-linejoin:round;stroke-miterlimit:10;}
	.st1{fill:none;stroke:#fff;stroke-width:32;stroke-linejoin:round;stroke-miterlimit:10;}
	.st2{fill:none;stroke:#fff;stroke-width:32;stroke-miterlimit:10;}
	.st3{stroke:#fff;stroke-width:3;stroke-miterlimit:10;}
	.st4{fill:#FFFFFF;stroke:#fff;stroke-miterlimit:10;}
	.st5{fill:none;stroke:#fff;stroke-width:32;stroke-linecap:round;stroke-miterlimit:10;}
</style>
<path class="st0" d="M440.5,132.8c0-12.1-0.1-23.7,0-35.3c0.3-31-25.7-51.7-52.1-51.8c-70-0.3-139.9-0.1-209.9,0
	c-3.3,0-6.7,0.2-9.9,0.8c-24.6,4.9-41.7,25.2-42.2,50.3c-0.2,11.8,0,23.6,0,36.3H20.3v112.2h963.4V132.8H440.5z"/>
<path d="M971.8,1000c-13.9,0-26.5,0-40,0c0-203.4,0-406.7,0-610.6c13,0,26.1,0,40,0C971.8,592.7,971.8,796,971.8,1000z"/>
<path d="M476.7,1000c-13.9,0-26.5,0-40,0c0-203.4,0-406.7,0-610.6c13,0,26.1,0,40,0C476.7,592.7,476.7,796,476.7,1000z"/>
<path class="st0" d="M983.7,304.9v94.3c-9.3,0.1-2.2,0.1-11.5,0.1h-0.4c-13.3,0-26.7,0-40,0c-242.5,0-485.1,0-727.6-0.1
	c-4,0-8.2-1.1-11.8-2.9c-5.8-2.9-28.9-15.2-54.2-28.7c0,56.8,0,38.5,0,95.5h-59c0-67.3,0-59.7,0-126.9c-4.1-2.2-7.8-4.1-10.8-5.7
	v0.1c-15.7-8.3-31.1-16.5-48-25.5H983.7z"/>
<g>
	<rect x="90.7" y="614.1" class="st1" width="186.7" height="271"/>
	<rect x="139.8" y="665.2" class="st1" width="88.6" height="75.3"/>
	<path d="M330.8,721.7h-9.9c-8,0-14.6-6.5-14.6-14.6v-74.5c0-8,6.5-14.6,14.6-14.6h9.9c8,0,14.6,6.5,14.6,14.6v74.5
		C345.4,715.2,338.9,721.7,330.8,721.7z"/>
	<rect x="48.3" y="933.6" class="st1" width="271.7" height="50"/>
	<rect x="48.3" y="512.6" class="st1" width="271.7" height="50"/>
	<path class="st5" d="M325.9,655.8c0,0,42.9,0,47.8,43.6c2.5,22.6,0.8,41.5-7.3,63.5c-8.1,22-16.7,43.5-5.3,81
		c8.8,28.9,39.1,59.4,14.7,85.8c-18.8,20.4-49.8,8.2-49.8,8.2"/>
</g>
<g>
	<rect x="576.7" y="614.1" class="st1" width="186.7" height="271"/>
	<rect x="625.8" y="665.2" class="st1" width="88.6" height="75.3"/>
	<path d="M816.8,721.7h-9.9c-8,0-14.6-6.5-14.6-14.6v-74.5c0-8,6.5-14.6,14.6-14.6h9.9c8,0,14.6,6.5,14.6,14.6v74.5
		C831.4,715.2,824.9,721.7,816.8,721.7z"/>
	<rect x="534.3" y="933.6" class="st1" width="271.7" height="50"/>
	<rect x="534.3" y="512.6" class="st1" width="271.7" height="50"/>
	<path class="st5" d="M811.9,655.8c0,0,42.9,0,47.8,43.6c2.5,22.6,0.8,41.5-7.3,63.5c-8.1,22-16.7,43.5-5.3,81
		c8.8,28.9,39.1,59.4,14.7,85.8c-18.8,20.4-49.8,8.2-49.8,8.2"/>
</g>
</svg>
