<?xml version="1.0" encoding="utf-8"?>
<!-- Generator: Adobe Illustrator 21.0.0, SVG Export Plug-In . SVG Version: 6.00 Build 0)  -->
<svg version="1.1" id="Слой_1" xmlns="http://www.w3.org/2000/svg" xmlns:xlink="http://www.w3.org/1999/xlink" x="0px" y="0px"
	 viewBox="0 0 1000 1000" style="enable-background:new 0 0 1000 1000;" xml:space="preserve">
<style type="text/css">
	.st0{fill:none;stroke:#fff;stroke-width:32;stroke-linecap:round;stroke-linejoin:round;stroke-miterlimit:10;}
	.st1{fill:none;stroke:#fff;stroke-width:32;stroke-linejoin:round;stroke-miterlimit:10;}
	.st2{fill:none;stroke:#fff;stroke-width:32;stroke-miterlimit:10;}
	.st3{stroke:#fff;stroke-width:3;stroke-miterlimit:10;}
	.st4{fill:#FFFFFF;stroke:#fff;stroke-width:32;stroke-linecap:round;stroke-miterlimit:10;}
	.st5{fill:none;stroke:#fff;stroke-width:32;stroke-linecap:round;stroke-miterlimit:10;}
</style>
<path class="st2" d="M982.7,412.1c0,37.6-54.7,71.5-143,96c-87,24.1-206.7,39-338.7,39s-251.7-14.9-338.7-39
	c-88.3-24.5-143-58.5-143-96C19.4,337.5,235,277,501,277C767,277,982.7,337.5,982.7,412.1z"/>
<path d="M840.7,508.1c-87,24.1-206.7,39-338.7,39s-251.7-14.9-338.7-39c87-24.1,206.6-39,338.7-39S753.7,484,840.7,508.1z"/>
<path class="st5" d="M20.4,783.2c0,0.1,0,0.1,0,0.2c0,51.8,104.2,96.9,257.1,119.5"/>
<path class="st5" d="M983.7,783.2c0,0.1,0,0.1,0,0.2c0,51.8-104.2,96.9-257,119.5"/>
<path class="st5" d="M20.4,661.7c0,0.1,0,0.1,0,0.2c0,51.8,104.2,96.9,257,119.5"/>
<path class="st5" d="M983.7,661.7c0,0.1,0,0.1,0,0.2c0,51.8-104.2,96.9-257,119.5"/>
<path class="st5" d="M983.7,527.4c0,0.1,0,0.1,0,0.2c0,74.6-215.6,135.1-481.6,135.1c-266,0-481.6-60.5-481.6-135.1
	c0-0.1,0-0.1,0-0.2"/>
<rect x="485" y="277.4" width="32" height="218.6"/>
<rect x="824.7" y="508.1" width="32" height="373.6"/>
<rect x="148.9" y="508.1" width="32" height="373.6"/>
<rect x="718.8" y="284" transform="matrix(0.866 0.5 -0.5 0.866 295.1065 -314.6982)" width="32" height="218.6"/>
<rect x="256.4" y="292" transform="matrix(-0.866 0.5 -0.5 -0.866 708.9252 612.6264)" width="32" height="218.6"/>
<path class="st5" d="M671.5,983.3H332.6c-30.5,0-55.2-24.7-55.2-55.2V773.8c0-30.5,24.7-55.2,55.2-55.2h338.9
	c30.5,0,55.2,24.7,55.2,55.2v154.3C726.6,958.6,701.9,983.3,671.5,983.3z"/>
<rect x="407" y="850.9" width="190.1" height="135.3"/>
<path d="M597.1,826.5H407v0c0-39.8,32.3-72.1,72.1-72.1h45.8C564.8,754.3,597.1,786.6,597.1,826.5L597.1,826.5z"/>
<g>

		<rect x="68.5" y="57.9" transform="matrix(0.9866 -0.1634 0.1634 0.9866 -21.9685 40.7113)" class="st1" width="336" height="192"/>
	<rect x="115.6" y="125.3" transform="matrix(0.9866 -0.1634 0.1634 0.9866 -21.1767 25.0272)" width="52" height="32"/>
	<rect x="207.6" y="110" transform="matrix(0.9866 -0.1634 0.1634 0.9866 -17.4496 39.8615)" width="52" height="32"/>
	<rect x="299.7" y="94.8" transform="matrix(0.9866 -0.1634 0.1634 0.9866 -13.7224 54.6958)" width="52" height="32"/>
	<rect x="124.9" y="181.5" transform="matrix(0.9866 -0.1634 0.1634 0.9866 -30.2385 27.304)" width="52" height="32"/>
	<rect x="216.9" y="166.3" transform="matrix(0.9866 -0.1634 0.1634 0.9866 -26.5114 42.1383)" width="52" height="32"/>
	<rect x="309" y="151" transform="matrix(0.9866 -0.1634 0.1634 0.9866 -22.7842 56.9726)" width="52" height="32"/>
</g>
<g>

		<rect x="594.3" y="57.9" transform="matrix(0.9866 0.1634 -0.1634 0.9866 35.3882 -122.4735)" class="st1" width="336" height="192"/>
	<rect x="641.4" y="150.6" transform="matrix(0.9866 0.1634 -0.1634 0.9866 36.18 -106.7895)" width="52" height="32"/>
	<rect x="733.4" y="165.8" transform="matrix(0.9866 0.1634 -0.1634 0.9866 39.9072 -121.6238)" width="52" height="32"/>
	<rect x="825.5" y="181.1" transform="matrix(0.9866 0.1634 -0.1634 0.9866 43.6343 -136.4581)" width="52" height="32"/>
	<rect x="650.7" y="94.3" transform="matrix(0.9866 0.1634 -0.1634 0.9866 27.1182 -109.0663)" width="52" height="32"/>
	<rect x="742.7" y="109.6" transform="matrix(0.9866 0.1634 -0.1634 0.9866 30.8454 -123.9006)" width="52" height="32"/>
	<rect x="834.8" y="124.8" transform="matrix(0.9866 0.1634 -0.1634 0.9866 34.5725 -138.7349)" width="52" height="32"/>
</g>
</svg>
