<?xml version="1.0" encoding="utf-8"?>
<!-- Generator: Adobe Illustrator 21.0.0, SVG Export Plug-In . SVG Version: 6.00 Build 0)  -->
<svg version="1.1" id="Слой_1" xmlns="http://www.w3.org/2000/svg" xmlns:xlink="http://www.w3.org/1999/xlink" x="0px" y="0px"
	 viewBox="0 0 1000 1000" style="enable-background:new 0 0 1000 1000;" xml:space="preserve">
<style type="text/css">
	.st0{stroke:#FFFFFF;stroke-miterlimit:10;}
	.st1{fill:#FFFFFF;}
</style>
<circle class="st0" cx="500.4" cy="500" r="499.8"/>
<path class="st1" d="M338,535.8c7.2-23,14-44.5,20.8-66.1c27.8-88.9,55.6-177.7,83.4-266.6c9.3-29.8,18.5-59.8,28.1-89.5
	c6.2-19.2,24.8-28.1,42.6-20.5c12,5.1,18.2,14.6,19.3,27.4c4.6,54.8,9.1,109.7,13.6,164.6c4.2,50.3,8.5,100.5,12.7,150.8
	c3.5,42,6.9,84,10.4,126c4.6,55.2,9.3,110.4,13.9,165.6c0.5,5.5,0.9,11,2.4,16.7c2.5-5.8,5-11.6,7.5-17.5
	c33.2-79.5,66.3-159,99.5-238.4c5.3-12.6,15.1-19.4,28.8-19.5c32.4-0.3,64.8-0.2,97.2,0c4.4,0,6.8-1.4,9.4-4.9
	c15.5-21.1,36.5-30.1,62.2-25.7c24.8,4.3,41.7,19.2,49.2,43.2c7.6,24.5,1.7,46.4-16.6,64.3c-27.4,26.8-73,22.1-94.7-9.5
	c-2.4-3.5-4.8-4.7-8.9-4.6c-23.6,0.2-47.1,0.2-70.7,0c-4.4,0-6.4,1.3-8.1,5.4c-38.4,92.5-76.9,184.8-115.4,277.2
	c-10.5,25.1-20.8,50.4-31.5,75.4c-10,23.3-39.3,27.2-54.4,7.6c-5.7-7.3-6.2-15.9-7-24.6c-5.7-68.4-11.3-136.9-17-205.3
	c-5.5-66.4-11.1-132.8-16.6-199.2c-4.8-57.6-9.6-115.2-14.4-172.8c-0.2-2.2-0.6-4.3-1.8-6.6c-2.9,9.2-5.9,18.4-8.8,27.7
	c-33.2,105.9-66.3,211.7-99.4,317.6c-3.7,11.9-11.2,19.8-23.3,22.8c-15.3,3.8-29.7-3.6-36.4-18.8c-11.6-26.1-22.9-52.2-34.4-78.4
	c-11.8-27-23.6-53.9-35.5-80.9c-2.7-6-6.4-11-13.7-11.2c-7.3-0.2-11.3,4.5-14.3,10.4c-5.7,11.3-11.5,22.6-17,34.1
	c-6.4,13.4-17,19.8-31.7,19.7c-25.6-0.1-51.2,0.1-76.8,0c-13.5-0.1-25.2-8.2-29.6-20.2c-4.6-12.6-1.1-26.7,8.9-35.2
	c5.8-5,12.6-7.4,20.3-7.4c17.5,0,35-0.2,52.5,0.1c5.5,0.1,8.4-1.5,11-6.6c4.7-9.5,9.4-19.4,16-27.6c35-43,110-34.8,132.4,18.9
	c10.8,25.8,22.4,51.3,33.7,76.9C336.1,531.8,336.7,533,338,535.8z"/>
</svg>
