<?xml version="1.0" encoding="utf-8"?>
<!-- Generator: Adobe Illustrator 21.0.0, SVG Export Plug-In . SVG Version: 6.00 Build 0)  -->
<svg version="1.1" id="Слой_1" xmlns="http://www.w3.org/2000/svg" xmlns:xlink="http://www.w3.org/1999/xlink" x="0px" y="0px"
	 viewBox="0 0 1000 1000" style="enable-background:new 0 0 1000 1000;" xml:space="preserve">
<style type="text/css">
	.st0{stroke:#FFFFFF;stroke-miterlimit:10;}
	.st1{fill:#FFFFFF;}
	.st2{fill:#FFFFFF;stroke:#FFFFFF;stroke-width:5;stroke-miterlimit:10;}
</style>
<circle class="st0" cx="500.4" cy="500" r="499.8"/>
<g>
	<path class="st2" d="M193.8,360c0-2.4,1.3-3.5,3-3.1c0.3,0.1,0.6,0.4,0.8,0.6c-0.2,0.2-0.5,0.5-0.7,0.7c-0.6,0.5-1.2,0.9-1.7,1.5
		c-0.4,0.4-0.5,1-0.8,1.4C194.2,360.6,193.9,360.1,193.8,360z"/>
	<path class="st2" d="M497.9,911c-12.4-5.9-25.1-11.3-37.3-17.7C340,830.1,256.1,734.9,211.1,606.1c-13.9-39.7-22.9-80.6-28.5-122.3
		c-5.7-42.4-6.1-85.1-3.9-127.7c1.2-23.1,3.9-46.1,6.4-69.2c0.7-6.6,2.5-13,4.2-19.5c1.4-5.4,4.7-8.9,10.3-10.8
		c54.4-18.3,108.6-37.1,163.1-55.2c44.8-14.9,89.8-29,134.6-43.5c0.2-0.1,0.4-0.3,0.6-0.5c1,0,2.1,0,3.1,0
		c11.3,3.6,22.6,7.1,33.8,10.9c87,28.7,174,57.4,261.1,85.9c9.6,3.1,15.3,8.6,16.7,18.7c2.1,15.1,5.2,30.1,6.3,45.2
		c1.9,27.5,3.7,55,3.7,82.5c-0.1,68.4-9.7,135.5-31.7,200.5c-18.6,54.8-44.1,106-80.6,151.4c-53.8,66.9-119.1,119-197.7,154.2
		c-3.3,1.5-6.7,2.9-10.1,4.4C501,911,499.4,911,497.9,911z M785.6,393.2c-0.3,0-0.7,0-1,0c0-7.7,0.2-15.4,0-23.1
		c-0.7-26.1-1.2-52.3-6.7-78c-0.7-3.4-2.1-5.2-5.5-6.4c-24-7.9-47.9-16.3-72-24.1c-62.9-20.6-126-40.7-188.8-61.6
		c-9.3-3.1-17.4-2.3-26.2,0.6C430,218.9,374.7,236.8,319.4,255c-30.7,10.1-61.3,20.6-92,30.9c-2.4,0.8-4.4,1.8-4.8,4.7
		c-1.5,9.9-3.9,19.7-4.5,29.6c-1.3,21.7-2.3,43.5-2.5,65.3c-0.3,33-0.3,66.1,4.6,98.9c5.4,36.1,13.2,71.7,24.8,106.4
		c31.3,94.1,87.6,170,166.9,229.1c26.9,20,56.3,35.9,86,51.2c1.3,0.6,3.5,0.4,4.8-0.3c10.8-5.6,21.6-11.1,32.2-17.1
		c108.9-61.4,184.2-150.5,222.4-270.1c11.9-37.3,20.4-75.4,24.2-114.3C784,443.9,784.3,418.5,785.6,393.2z"/>
	<path class="st2" d="M361.1,588.5c0.8-37.8,1.7-70.2,2.2-102.6c0.2-15.5,5.3-28.3,17.9-37.6c3.1-2.3,6.5-4,10-5.6
		c3-1.3,4.2-2.9,4.2-6.3c0.1-16.4,0.4-32.8,1-49.2c0.3-7,0.8-14.2,2.8-20.8c4.1-13.6,17.7-25.4,36.1-25.3
		c43.8,0.2,87.6,0.3,131.5-0.3c10.5-0.1,17.8,4.7,24.7,11c7,6.3,11.5,14.3,11.8,24.2c0.5,20,1.1,40,1.4,59.9
		c0.1,3.6,1.2,5.5,4.5,6.8c12.1,5,21.1,13.5,25,26c2.3,7.5,2.7,15.9,2.8,23.9c0.5,50.9,0.8,101.7,0.8,152.6c0,16-0.7,32-2.2,48
		c-1.3,13.9-17,32.6-36.3,32.6c-66.2-0.1-132.5,0.1-198.7-0.2c-18.3-0.1-35.8-17.4-36.5-35.7C362.8,654.3,362,618.7,361.1,588.5z
		 M400.2,583.6c-0.3,0-0.5,0-0.8,0c0,4.6,0,9.2,0,13.8c0.2,28.3,0.6,56.6,0.7,84.9c0,3.5,1.2,5.2,4.7,5.4c5.1,0.2,10.2,0.9,15.3,0.9
		c53.3,0.1,106.6,0.1,159.9,0c5.4,0,10.7-0.7,16.1-1c2.7-0.2,3.9-1.5,3.9-4.2c0-1.2,0.1-2.3,0.1-3.5c0.1-54.8,0.3-109.7,0.4-164.5
		c0-10.1-0.4-20.2-0.4-30.4c0-3.6-1.1-5.5-5-5.6c-3.4,0-6.9-0.6-10.3-0.6c-46-0.2-92-0.6-138-0.6c-13.9,0-27.9,0.8-41.8,1.2
		c-3.5,0.1-4.8,1.6-4.8,5.2C400.3,517.7,400.2,550.6,400.2,583.6z M567,438.8c0-19.9,0-39.5,0-59.3c-44.7,0-89.1,0-133.8,0
		c0,19.9,0,39.5,0,59.3C477.9,438.8,522.2,438.8,567,438.8z"/>
	<path class="st2" d="M455.3,619.2c0-6.1-0.4-12.3,0.1-18.4c0.6-8.1-1.4-15.2-5.2-22.3c-8.5-15.7-9.4-32.2-2.9-48.9
		c7.3-19,30.1-34.9,52.8-34.9c29.1-0.1,51.6,22.8,55.8,45.4c2.4,13,1.1,25.5-5.3,36.9c-4.7,8.4-6.2,16.9-6,26.3
		c0.3,15.7-0.3,31.5-0.7,47.2c-0.1,2.7-0.6,5.3-1.1,8c-1.7,8.2-6.6,13.2-15,14.3c-17.9,2.3-35.8,2.2-53.7,0.3
		c-12.1-1.3-16.6-6.9-17.9-19.2c-0.3-2.4-0.7-4.8-0.7-7.3c-0.1-9.1,0-18.2,0-27.3C455.5,619.2,455.4,619.2,455.3,619.2z
		 M506.6,635.7c0-2.1,0-3.9,0-5.6c0.2-15.2,0.4-30.5,0.4-45.7c0-7.2,1.4-13.4,6.8-18.8c4.3-4.2,6.6-9.8,5.9-16.1
		c-1-9.1-9.4-16.8-19.1-17.5c-8.9-0.6-17.4,5.8-19.7,15c-2.1,8.3,1.7,14.7,6.9,20.5c3.1,3.3,4.6,6.9,4.7,11.4
		c0.2,17.5,0.6,35.1,0.8,52.6c0,1.4,0.1,2.7,0.2,4.2C498,635.7,501.9,635.7,506.6,635.7z"/>
</g>
</svg>
