<?xml version="1.0" encoding="utf-8"?>
<!-- Generator: Adobe Illustrator 21.0.0, SVG Export Plug-In . SVG Version: 6.00 Build 0)  -->
<svg version="1.1" id="Слой_1" xmlns="http://www.w3.org/2000/svg" xmlns:xlink="http://www.w3.org/1999/xlink" x="0px" y="0px"
	 viewBox="0 0 1000 1000" style="enable-background:new 0 0 1000 1000;" xml:space="preserve">
<style type="text/css">
	.st0{stroke:#FFFFFF;stroke-miterlimit:10;}
	.st1{fill:#FFFFFF;}
	.st2{fill:#FFFFFF;stroke:#FFFFFF;stroke-width:5;stroke-miterlimit:10;}
</style>
<circle class="st0" cx="500.4" cy="500" r="499.8"/>
<path class="st2" d="M567,599.3c0,96.1-77.9,174-174,174s-174-77.9-174-174s174-346,174-346S567,503.2,567,599.3z"/>
<circle class="st2" cx="836.9" cy="403.2" r="28.7"/>
<circle class="st2" cx="754.5" cy="516.1" r="28.7"/>
<circle class="st2" cx="557.4" cy="202.1" r="28.7"/>
<circle class="st2" cx="745.3" cy="237.3" r="45.2"/>
<circle class="st2" cx="651.9" cy="382.2" r="45.2"/>
<path class="st2" d="M841,821.6C759.4,795.7,632,779,489,779c-130.4,0-247.7,13.9-329.3,36c62.3-39.9,189.3-67.2,335.8-67.2
	C650.1,747.8,782.9,778.1,841,821.6z"/>
</svg>
