<?xml version="1.0" encoding="utf-8"?>
<!-- Generator: Adobe Illustrator 21.0.0, SVG Export Plug-In . SVG Version: 6.00 Build 0)  -->
<svg version="1.1" id="Слой_1" xmlns="http://www.w3.org/2000/svg" xmlns:xlink="http://www.w3.org/1999/xlink" x="0px" y="0px"
	 viewBox="0 0 1000 1000" style="enable-background:new 0 0 1000 1000;" xml:space="preserve">
<path d="M515.3,4.8c16.4,3.9,33.4,6.1,49,12c59.8,22.7,99,65.7,114.8,127.5c5.7,22.3,4.9,46.4,6.3,69.7c0.8,12.4,0.1,25,0.1,38.4
	c4.7,0,8.5,0,12.3,0c46.4,0,92.8,0,139.2,0c20.9,0,32.4,11.1,34.3,32.1c4.1,46.1,8.8,92.2,12.9,138.3c4.2,46.7,8,93.5,12.3,140.3
	c4.1,45.1,8.7,90.2,12.8,135.4c3.6,39.7,6.8,79.4,10.4,119.1c3.4,37.8,7.2,75.5,10.8,113.3c0.9,9.6,1.8,19.2,2.6,28.8
	c1.5,17.8-7.8,28.8-23.2,35.6c-273.4,0-546.8,0-820.2,0c-21.9-12.2-24.9-20-22.1-46.2c4.1-38.7,7-77.5,10.5-116.2
	c2.9-31.7,6.2-63.3,9-95c2.9-32,5.5-64.1,8.4-96.1c2.9-31.7,6.1-63.3,9-95c2.9-31.7,5.6-63.4,8.4-95.1c2.8-31,5.5-62.1,8.4-93.1
	c2.3-25,5.1-49.9,7-74.9c1.4-18.6,13.8-31.1,32.4-31.1c47.4-0.1,94.8,0,142.1,0c3.5,0,6.9,0,11.3,0c0-20.5,0.2-40.1,0-59.6
	c-0.9-96,71.4-176.5,164-186.3c1.5-0.2,2.9-1.1,4.4-1.6C493.4,4.8,504.3,4.8,515.3,4.8z M868.2,932.9
	c-18.8-206.7-37.4-412.1-56.1-618.1c-42.2,0-83.9,0-126.5,0c0,22.6-0.2,44.8,0.3,66.9c0,2.3,3.2,4.9,5.5,6.8
	c20.2,16.4,29.3,37.1,23.4,63c-5.5,24.3-21,40.2-45,46.3c-24.9,6.3-46.6-0.8-62.8-20.9c-23-28.5-18-65.6,11-88.5
	c2.3-1.8,5.4-4.5,5.4-6.8c0.4-22.1,0.2-44.3,0.2-66.6c-83,0-165,0-247.6,0c0,21.2,0.1,41.8-0.1,62.3c-0.1,5.3,1.5,8.3,5.9,11.7
	c20.6,15.9,29.3,37.1,23.3,62.8c-5.6,24.2-20.9,40.2-45.1,46.1c-24.9,6.1-46.6-0.9-62.7-21.1c-22.8-28.5-17.7-65.8,11.3-88.4
	c2.2-1.8,5.3-4.5,5.3-6.8c0.4-22.1,0.2-44.3,0.2-66.8c-42.5,0-84,0-126.5,0c-18.7,206-37.4,411.9-56.1,618.1
	C377.7,932.9,622.3,932.9,868.2,932.9z M374.2,251.7c85,0,166.9,0,249.4,0c0-20.3,0-39.9,0-59.5c0-63-43.6-113.7-105.7-123.9
	c-59.8-9.8-124.2,28.5-137.4,92.6C374.5,190.1,376.1,220.9,374.2,251.7z"/>
</svg>
